<svg width="42" height="40" viewBox="0 0 42 40" fill="none" xmlns="http://www.w3.org/2000/svg">
<path d="M37.9662 39.2889L33.7225 34.9563C30.3187 38.1078 25.8475 39.9996 21 39.9996C12.7312 39.9996 5.47662 34.6126 2.93825 26.5901C2.46242 25.0893 3.27049 23.476 4.74163 22.9939C6.2265 22.5029 7.79187 23.3343 8.26787 24.8322C10.0538 30.4915 15.1725 34.2858 21 34.2858C24.3215 34.2858 27.3875 33.0198 29.7675 30.9111L25.8213 26.965C24.4212 25.4652 25.445 22.9118 27.51 22.8582H40.3637C41.2737 22.885 42 23.635 42 24.5635V37.5855C42 39.7326 39.4538 40.8075 37.9662 39.2889ZM37.2575 17.0016C35.7752 17.4871 34.2055 16.6613 33.7313 15.1634C31.9462 9.51121 26.8275 5.71691 21 5.71691C17.6785 5.71691 14.6125 6.98286 12.2325 9.09161L16.1 13.0377C17.5788 14.5376 16.555 17.0909 14.49 17.1445H1.63275C0.728 17.1177 0 16.3677 0 15.4393V2.41363C0 0.267387 2.54362 -0.807518 4.03113 0.711098L8.27487 5.04375C11.6812 1.89582 16.1525 0.00312805 20.9212 0.00312805C29.1856 0.00312805 36.4437 5.39015 38.9813 13.4127C39.5412 14.9125 38.7275 16.5999 37.2575 17.0016Z" fill="white"/>
</svg>
